<?xml version="1.0" standalone="no"?>
<!DOCTYPE svg PUBLIC "-//W3C//DTD SVG 20010904//EN"
 "http://www.w3.org/TR/2001/REC-SVG-20010904/DTD/svg10.dtd">
<svg version="1.0" xmlns="http://www.w3.org/2000/svg"
 width="2035.000000pt" height="555.000000pt" viewBox="0 0 2035.000000 555.000000"
 preserveAspectRatio="xMidYMid meet">

<g transform="translate(0.000000,555.000000) scale(0.100000,-0.100000)"
fill="#000000" stroke="none">
<path d="M1565 5539 c-192 -12 -302 -27 -328 -44 -56 -36 -52 136 -49 -2517 2
-2715 -4 -2494 67 -2524 53 -22 414 -20 461 2 69 33 64 -155 64 2279 0 2077 1
2206 17 2212 28 11 554 -15 743 -37 849 -97 1468 -359 1858 -786 67 -73 85
-104 63 -104 -14 0 -679 -446 -838 -562 -673 -491 -971 -812 -1093 -1176 -86
-257 -110 -566 -65 -825 51 -293 182 -533 375 -688 75 -60 215 -149 235 -149
5 0 75 114 154 252 132 230 143 253 126 262 -90 53 -172 116 -201 155 -82 113
-119 272 -112 491 10 287 79 445 298 674 205 215 524 460 1085 834 l320 213
317 547 c174 301 315 548 314 550 -2 1 -89 -52 -194 -118 -104 -66 -194 -120
-199 -120 -5 0 -41 39 -80 88 -88 108 -260 276 -374 365 -417 324 -992 550
-1679 662 -396 64 -901 89 -1285 64z"/>
<path d="M93 5523 c-12 -2 -36 -20 -53 -39 l-30 -35 0 -2460 c0 -2708 -5
-2500 61 -2534 25 -14 65 -16 249 -13 l220 3 32 33 33 32 2 2463 c3 2455 3
2462 -17 2495 -34 56 -65 62 -282 61 -106 -1 -203 -4 -215 -6z"/>
<path d="M7554 2786 c-3 -8 -4 -27 -2 -43 l3 -28 113 -3 112 -3 0 -394 0 -394
-112 -3 -113 -3 0 -40 0 -40 265 -3 c146 -1 275 0 288 3 20 5 23 11 20 43 l-3
37 -115 5 -115 5 0 390 0 390 95 2 c137 4 142 6 138 51 l-3 37 -283 3 c-238 2
-283 0 -288 -12z"/>
<path d="M10574 2792 c-19 -13 -23 -39 -8 -61 14 -19 24 -21 140 -21 l124 0 0
-395 0 -395 -122 0 c-68 0 -128 -4 -134 -8 -19 -13 -23 -39 -8 -61 15 -21 21
-21 313 -21 312 0 321 1 321 45 0 40 -18 45 -147 45 l-123 0 0 428 c0 320 -3
431 -12 440 -13 13 -325 17 -344 4z"/>
<path d="M11334 2792 c-19 -13 -23 -39 -8 -61 14 -19 24 -21 140 -21 l124 0 0
-395 0 -395 -122 0 c-68 0 -128 -4 -134 -8 -19 -13 -23 -39 -8 -61 15 -21 21
-21 313 -21 312 0 321 1 321 45 0 40 -18 45 -147 45 l-123 0 0 428 c0 320 -3
431 -12 440 -13 13 -325 17 -344 4z"/>
<path d="M12345 2765 c-14 -13 -25 -36 -25 -50 0 -33 41 -75 74 -75 38 0 56
10 72 42 40 77 -59 146 -121 83z"/>
<path d="M9202 2698 c-8 -8 -12 -45 -12 -100 l0 -88 -94 0 c-103 0 -123 -10
-112 -54 7 -29 30 -36 129 -36 l77 0 0 -224 c0 -134 4 -236 11 -253 55 -146
304 -164 413 -30 27 34 31 47 31 99 0 71 -15 89 -62 72 -24 -8 -29 -17 -35
-58 -4 -29 -16 -58 -29 -72 -48 -51 -143 -56 -196 -9 l-28 23 -3 226 -3 226
144 0 c127 0 148 2 168 19 21 16 22 22 11 45 l-12 26 -155 0 -155 0 0 88 c0
95 -7 112 -50 112 -14 0 -31 -5 -38 -12z"/>
<path d="M15282 2698 c-8 -8 -12 -45 -12 -100 l0 -88 -94 0 c-103 0 -123 -10
-112 -54 7 -29 30 -36 129 -36 l77 0 0 -224 c0 -134 4 -236 11 -253 55 -146
304 -164 413 -30 27 34 31 47 31 99 0 71 -15 89 -62 72 -24 -8 -29 -17 -35
-58 -4 -29 -16 -58 -29 -72 -48 -51 -143 -56 -196 -9 l-28 23 -3 226 -3 226
144 0 c127 0 148 2 168 19 21 16 22 22 11 45 l-12 26 -155 0 -155 0 0 88 c0
95 -7 112 -50 112 -14 0 -31 -5 -38 -12z"/>
<path d="M10043 2516 c-104 -34 -176 -98 -222 -196 -22 -47 -26 -68 -26 -145
1 -110 21 -161 95 -239 75 -79 149 -110 265 -111 110 0 174 25 234 91 67 72
64 124 -5 124 -29 0 -36 -5 -53 -38 -37 -72 -123 -103 -224 -82 -92 19 -187
107 -203 188 l-6 32 260 0 c301 0 288 -4 279 89 -14 130 -79 231 -175 273 -58
26 -162 33 -219 14z m160 -90 c67 -24 110 -81 123 -165 l7 -41 -217 0 c-166 0
-216 3 -216 13 0 31 51 117 90 149 63 54 139 70 213 44z"/>
<path d="M13325 2505 l-60 -25 -47 20 c-30 13 -69 20 -110 20 -190 0 -313
-194 -228 -360 18 -35 18 -41 5 -74 -19 -45 -19 -107 0 -152 l15 -36 -45 -50
c-134 -149 -53 -317 176 -368 84 -19 250 -9 323 20 97 37 176 124 176 192 0
71 -50 152 -113 185 -57 29 -92 35 -254 42 -189 8 -203 14 -203 88 0 48 3 49
53 28 56 -23 153 -19 213 9 122 57 178 204 124 323 -21 48 -18 52 43 67 23 5
32 2 48 -19 24 -30 68 -33 92 -7 23 26 21 56 -6 88 -35 40 -119 44 -202 9z
m-128 -96 c46 -29 77 -98 69 -156 -12 -89 -69 -144 -150 -145 -90 -2 -156 66
-156 159 0 83 33 132 107 159 44 15 84 10 130 -17z m82 -579 c114 -19 161 -57
161 -132 0 -46 -60 -99 -136 -120 -82 -24 -133 -28 -215 -17 -171 21 -250 107
-189 207 33 53 87 72 210 72 58 0 134 -5 169 -10z"/>
<path d="M13843 2516 c-104 -34 -176 -98 -222 -196 -22 -47 -26 -68 -26 -145
1 -110 21 -161 95 -239 75 -79 149 -110 265 -111 110 0 174 25 234 91 67 72
64 124 -5 124 -29 0 -36 -5 -53 -38 -37 -72 -123 -103 -224 -82 -92 19 -187
107 -203 188 l-6 32 260 0 c301 0 288 -4 279 89 -14 130 -79 231 -175 273 -58
26 -162 33 -219 14z m160 -90 c67 -24 110 -81 123 -165 l7 -41 -217 0 c-166 0
-216 3 -216 13 0 31 51 117 90 149 63 54 139 70 213 44z"/>
<path d="M8555 2508 c-16 -6 -49 -24 -72 -40 -40 -27 -43 -27 -43 -9 0 48 -6
51 -114 51 -105 0 -126 -7 -126 -41 0 -33 29 -49 86 -49 l54 0 0 -250 0 -250
-58 0 c-32 0 -63 -5 -70 -12 -18 -18 -14 -56 7 -68 11 -6 87 -10 175 -10 127
0 157 3 170 16 19 18 20 28 6 55 -9 16 -22 19 -71 19 l-61 0 4 183 3 184 30
48 c37 60 98 95 166 95 105 0 109 -10 109 -290 l0 -220 -48 0 c-52 0 -72 -12
-72 -45 0 -41 16 -45 180 -45 168 0 180 3 180 51 0 32 -15 39 -80 39 l-48 0
-4 233 c-3 226 -4 233 -28 277 -36 64 -86 90 -175 89 -38 0 -83 -5 -100 -11z"/>
<path d="M14635 2508 c-16 -6 -49 -24 -72 -40 l-43 -29 0 24 c0 40 -18 47
-120 47 -99 0 -120 -7 -120 -41 0 -33 29 -49 86 -49 l54 0 0 -250 0 -250 -58
0 c-32 0 -63 -5 -70 -12 -18 -18 -14 -56 7 -68 11 -6 87 -10 175 -10 127 0
157 3 170 16 19 18 20 28 6 55 -9 16 -22 19 -71 19 l-61 0 4 183 3 184 30 48
c37 60 98 95 166 95 105 0 109 -10 109 -290 l0 -220 -48 0 c-52 0 -72 -12 -72
-45 0 -41 16 -45 180 -45 168 0 180 3 180 51 0 32 -15 39 -80 39 l-48 0 -4
233 c-3 226 -4 233 -28 277 -36 64 -86 90 -175 89 -38 0 -83 -5 -100 -11z"/>
<path d="M12130 2495 c-17 -21 -4 -61 22 -69 13 -3 67 -6 121 -6 l97 0 0 -250
0 -250 -118 0 c-124 0 -142 -6 -142 -45 0 -43 10 -45 295 -45 290 0 295 1 295
51 0 35 -13 39 -131 39 l-99 0 0 283 c0 207 -3 286 -12 295 -19 19 -312 17
-328 -3z"/>
<path d="M11566 1478 c-7 -13 -57 -211 -110 -442 -53 -230 -99 -422 -102 -427
-3 -5 -20 -9 -38 -9 -37 0 -56 -15 -56 -45 0 -40 18 -45 151 -45 139 0 153 5
147 57 -3 24 -8 29 -41 33 -21 3 -38 8 -38 13 -1 11 11 76 22 120 l10 37 128
0 128 0 16 -75 c10 -42 17 -80 17 -85 0 -6 -16 -10 -35 -10 -43 0 -65 -33 -46
-68 11 -21 18 -21 321 -21 266 0 311 2 325 15 18 18 19 28 5 55 -9 16 -22 19
-71 19 l-61 0 4 183 3 184 30 48 c37 60 98 95 166 95 105 0 109 -10 109 -290
l0 -220 -48 0 c-52 0 -72 -12 -72 -45 0 -41 16 -45 180 -45 168 0 180 3 180
51 0 32 -15 39 -80 39 l-48 0 -4 233 c-3 226 -4 233 -28 277 -35 63 -86 90
-171 90 -77 0 -118 -12 -176 -52 l-43 -29 0 24 c0 40 -18 47 -120 47 -99 0
-120 -7 -120 -41 0 -33 29 -49 86 -49 l54 0 0 -250 0 -250 -62 -1 c-73 -2
-151 2 -157 7 -2 1 -48 194 -102 428 -54 234 -103 434 -109 446 -9 17 -21 20
-70 20 -51 0 -62 -3 -74 -22z m129 -382 c25 -120 44 -221 42 -223 -3 -2 -49
-2 -103 -1 l-100 3 50 239 c33 158 53 232 58 220 4 -11 28 -118 53 -238z"/>
<path d="M19166 1478 c-8 -13 -57 -211 -110 -441 -53 -231 -98 -423 -102 -428
-3 -5 -20 -9 -38 -9 -37 0 -56 -15 -56 -45 0 -40 18 -45 151 -45 139 0 153 5
147 57 -3 24 -8 29 -41 33 -21 3 -38 8 -38 13 -1 11 11 76 22 120 l10 37 128
0 128 0 16 -75 c10 -42 17 -80 17 -85 0 -6 -16 -10 -35 -10 -43 0 -65 -33 -46
-69 11 -20 19 -21 141 -21 100 0 132 3 143 15 13 13 16 13 21 0 4 -13 45 -15
263 -15 250 0 260 1 309 24 124 58 187 216 133 336 -26 59 -63 96 -124 127
l-49 25 36 19 c51 26 104 92 117 146 26 101 -32 218 -131 267 l-54 26 -249 -2
-250 -3 0 -40 0 -40 48 -3 47 -3 0 -395 0 -394 -43 0 c-24 0 -48 -5 -54 -11
-8 -8 -13 -8 -17 0 -4 6 -25 11 -46 11 -28 0 -40 5 -44 18 -3 9 -48 202 -100
429 -52 227 -100 421 -106 433 -9 17 -21 20 -70 20 -51 0 -62 -3 -74 -22z
m926 -98 c141 -40 148 -225 11 -291 -39 -19 -64 -22 -157 -23 l-111 -1 -3 150
c-1 82 0 155 2 162 7 16 202 18 258 3z m-802 -265 c28 -131 49 -240 47 -242
-3 -2 -49 -2 -103 -1 l-99 3 50 242 c27 133 51 240 53 239 1 -2 25 -110 52
-241z m815 -156 c72 -20 135 -106 135 -186 0 -57 -40 -112 -105 -146 -34 -17
-60 -20 -170 -21 l-130 -1 -3 170 c-1 93 0 175 2 182 7 17 213 18 271 2z"/>
<path d="M7462 1468 c-7 -7 -12 -21 -12 -33 0 -31 19 -45 62 -45 l38 0 0 -395
0 -395 -38 0 c-43 0 -62 -14 -62 -46 0 -43 15 -46 257 -42 228 3 228 3 275 30
89 53 160 157 193 283 20 78 20 252 0 330 -37 144 -113 252 -208 300 -50 25
-55 25 -272 25 -159 0 -224 -3 -233 -12z m403 -89 c126 -32 215 -194 215 -392
0 -168 -66 -303 -175 -359 -32 -17 -60 -21 -140 -22 l-100 -1 -3 393 -2 392
80 0 c45 0 101 -5 125 -11z"/>
<path d="M13614 1472 c-19 -13 -23 -39 -8 -61 14 -19 24 -21 140 -21 l124 0 0
-395 0 -395 -122 0 c-68 0 -128 -4 -134 -8 -19 -13 -23 -39 -8 -61 15 -21 21
-21 313 -21 312 0 321 1 321 45 0 40 -18 45 -147 45 l-123 0 0 428 c0 320 -3
431 -12 440 -13 13 -325 17 -344 4z"/>
<path d="M18114 1453 c-11 -41 6 -58 65 -61 l51 -3 0 -395 0 -394 -55 0 c-51
0 -55 -2 -61 -27 -15 -58 -19 -58 356 -61 245 -2 347 1 356 9 18 15 20 229 2
247 -16 16 -73 15 -86 -1 -6 -7 -12 -46 -14 -87 l-3 -75 -190 0 -190 0 0 390
0 390 65 3 c71 3 90 13 90 46 0 43 -15 46 -202 46 l-178 0 -6 -27z"/>
<path d="M16145 1445 c-14 -13 -25 -36 -25 -50 0 -33 41 -75 74 -75 38 0 56
10 72 42 40 77 -59 146 -121 83z"/>
<path d="M9202 1378 c-8 -8 -12 -45 -12 -100 l0 -88 -94 0 c-103 0 -123 -10
-112 -54 7 -29 30 -36 129 -36 l77 0 0 -224 c0 -134 4 -236 11 -253 55 -146
304 -164 413 -30 27 34 31 47 31 99 0 71 -15 89 -62 72 -24 -8 -29 -17 -35
-58 -4 -29 -16 -58 -29 -72 -48 -51 -143 -56 -196 -9 l-28 23 -3 226 -3 226
144 0 c127 0 148 2 168 19 21 16 22 22 11 45 l-12 26 -155 0 -155 0 0 88 c0
95 -7 112 -50 112 -14 0 -31 -5 -38 -12z"/>
<path d="M8407 1196 c-59 -16 -85 -39 -93 -81 -17 -93 104 -128 130 -37 11 40
34 47 122 39 88 -8 141 -37 165 -90 31 -70 28 -75 -48 -82 -321 -30 -469 -146
-394 -311 58 -128 266 -174 433 -94 36 17 38 17 84 -6 36 -18 64 -24 114 -24
73 0 90 10 90 51 0 30 -15 39 -65 39 -18 0 -47 3 -64 6 l-31 7 0 201 c0 173
-3 206 -19 241 -44 97 -136 147 -280 152 -60 2 -114 -2 -144 -11z m343 -421
c0 -46 -5 -95 -12 -109 -19 -43 -89 -69 -182 -70 -93 -1 -135 16 -166 67 -27
44 -25 60 10 101 44 50 173 88 323 95 l27 1 0 -85z"/>
<path d="M9927 1196 c-59 -16 -85 -39 -93 -81 -17 -93 104 -128 130 -37 11 40
34 47 122 39 88 -8 141 -37 165 -90 21 -47 24 -77 9 -77 -6 0 -54 -5 -108 -11
-279 -31 -413 -150 -343 -305 58 -128 272 -174 432 -93 36 18 36 18 84 -7 37
-18 64 -24 115 -24 73 0 90 10 90 51 0 30 -15 39 -65 39 -18 0 -47 3 -64 6
l-31 7 0 201 c0 173 -3 206 -19 241 -44 97 -136 147 -280 152 -60 2 -114 -2
-144 -11z m343 -421 c0 -46 -5 -95 -12 -109 -19 -43 -89 -69 -182 -70 -93 -1
-135 16 -166 67 -27 44 -25 60 10 101 44 50 173 88 323 95 l27 1 0 -85z"/>
<path d="M12967 1196 c-59 -16 -85 -39 -93 -81 -17 -93 104 -128 130 -37 11
40 34 47 122 39 88 -8 141 -37 165 -90 21 -47 24 -77 9 -77 -6 0 -54 -5 -108
-11 -279 -31 -413 -150 -343 -305 58 -128 272 -174 432 -93 36 18 36 18 84 -7
37 -18 64 -24 115 -24 73 0 90 10 90 51 0 30 -15 39 -65 39 -18 0 -47 3 -64 6
l-31 7 0 201 c0 173 -3 206 -19 241 -44 97 -136 147 -280 152 -60 2 -114 -2
-144 -11z m343 -421 c0 -104 -11 -129 -68 -157 -64 -30 -192 -32 -242 -3 -43
26 -74 77 -66 110 18 70 160 125 349 134 l27 1 0 -85z"/>
<path d="M15323 1200 c-112 -23 -183 -92 -183 -181 0 -99 70 -145 281 -185
188 -36 239 -64 239 -135 0 -38 -60 -85 -125 -99 -139 -29 -254 19 -286 120
-16 48 -27 60 -58 60 -46 0 -51 -15 -51 -140 0 -119 6 -140 42 -140 9 0 27 13
39 29 l21 29 57 -27 c50 -23 68 -26 161 -26 116 0 177 19 234 73 77 73 74 187
-6 258 -48 42 -99 60 -254 88 -181 33 -216 55 -200 122 18 72 269 99 339 36 9
-8 20 -33 24 -55 7 -47 38 -67 78 -49 24 11 25 15 25 110 0 63 -4 102 -12 110
-17 17 -55 15 -66 -3 -7 -14 -14 -14 -67 0 -63 16 -163 18 -232 5z"/>
<path d="M16843 1200 c-112 -23 -183 -92 -183 -181 0 -103 71 -149 297 -189
170 -30 223 -62 223 -131 0 -38 -60 -85 -125 -99 -139 -29 -254 19 -286 120
-16 48 -27 60 -58 60 -46 0 -51 -15 -51 -140 0 -119 6 -140 42 -140 9 0 27 13
39 29 l21 29 57 -27 c50 -23 68 -26 161 -26 116 0 177 19 234 73 77 73 74 187
-6 258 -48 42 -99 60 -254 88 -181 33 -216 55 -200 122 18 72 269 99 339 36 9
-8 20 -33 24 -55 7 -47 38 -67 78 -49 24 11 25 15 25 110 0 63 -4 102 -12 110
-17 17 -55 15 -66 -3 -7 -14 -14 -14 -67 0 -63 16 -163 18 -232 5z"/>
<path d="M14311 1171 c-22 -39 11 -71 73 -71 l34 0 118 -295 117 -295 -27 -84
c-32 -97 -64 -149 -106 -171 -46 -24 -60 -20 -60 18 0 40 -25 67 -63 67 -32 0
-67 -32 -67 -60 0 -34 26 -85 55 -108 33 -26 111 -30 154 -8 36 19 105 95 129
143 10 21 77 208 147 416 l128 377 39 0 c25 0 45 7 58 20 23 23 24 30 7 53
-11 15 -29 17 -152 15 l-140 -3 -3 -30 c-4 -36 18 -55 65 -55 18 0 33 -3 33
-7 0 -20 -153 -464 -158 -459 -4 5 -181 455 -182 464 0 1 15 2 33 2 47 0 69
19 65 55 l-3 30 -142 3 c-132 2 -143 1 -152 -17z"/>
<path d="M15932 1178 c-17 -17 -15 -44 4 -62 12 -13 39 -16 125 -16 l109 0 0
-250 0 -250 -118 0 c-124 0 -142 -6 -142 -45 0 -43 10 -45 295 -45 290 0 295
1 295 51 0 35 -13 39 -131 39 l-99 0 0 283 c0 207 -3 286 -12 295 -17 17 -309
17 -326 0z"/>
</g>
</svg>
